<?xml version="1.0" encoding="utf-8"?>
<!-- Generator: Adobe Illustrator 25.4.1, SVG Export Plug-In . SVG Version: 6.00 Build 0)  -->
<svg version="1.1" id="Layer_1" xmlns="http://www.w3.org/2000/svg" xmlns:xlink="http://www.w3.org/1999/xlink" x="0px" y="0px"
	 viewBox="0 0 3000 1324.3" style="enable-background:new 0 0 3000 1324.3;" xml:space="preserve">
<style type="text/css">
	.st0{fill:#FFFFFF;}
	.st1{fill:#343434;}
</style>
<g>
	<path class="st0" d="M418.73,995.8c-28.41,28.41-72.91,42.61-133.53,42.61c-58.84,0-106.9-17.88-144.18-53.64
		c-37.79-36.26-56.68-84.45-56.68-144.56c0-61.12,18.64-111.33,55.92-150.64c39.56-41.33,92.44-62.01,158.63-62.01
		c46.92,0,86.22,10.27,117.93,30.81l-15.22,97.39l-2.66-0.38c-12.17-14.7-24.98-24.35-38.42-28.91
		c-21.81-7.61-43.62-11.41-65.43-11.41c-21.81,0-38.93,2.79-51.36,8.37c-12.43,5.58-23.08,13.31-31.96,23.2
		c-17.75,20.29-26.63,47.17-26.63,80.65c0,59.34,20.54,98.15,61.63,116.41c14.2,6.09,29.23,9.13,45.08,9.13
		c15.85,0,29.67-1.39,41.47-4.18c11.79-2.79,22.5-6.59,32.15-11.41c20.54-10.14,34.49-21.93,41.84-35.38l2.66,1.14L418.73,995.8z"/>
	<path class="st0" d="M740.27,998.08c-32.47,26.88-67.84,40.32-106.14,40.32c-41.08,0-73.29-13.82-96.63-41.46
		c-22.32-26.88-33.48-63.78-33.48-110.7V735.21c0-50.72-1.08-79.82-3.23-87.31c-2.16-7.48-3.74-12.23-4.76-14.27
		c11.66,1.02,23.83,1.52,36.52,1.52h31.57c8.37,0,19.4-0.38,33.1-1.14v220.26c0,52.25,14.2,82.55,42.61,90.92
		c8.62,2.54,18,3.8,28.15,3.8c29.92,0,54.02-10.9,72.28-32.72V635.16h94.34V984c0,22.32,1.01,38.55,3.04,48.69h-97.39V998.08z"/>
	<path class="st0" d="M1048.12,990.09c0,21.81,0.51,36.01,1.52,42.61h-96.63V465.88h95.1V990.09z"/>
	<path class="st0" d="M1292.82,1038.4c-71.52,0-125.41-13.06-161.68-39.18c0.51-7.61,1.27-16.23,2.28-25.87l3.42-27.39
		c2.03-18,3.29-29.23,3.8-33.67c0.51-4.44,0.88-6.85,1.14-7.23c0.25-0.38,2.28,1.65,6.09,6.09c3.8,4.44,11.03,9.83,21.68,16.17
		c10.65,6.34,22.95,11.92,36.9,16.74c30.18,10.4,61.63,15.6,94.34,15.6c43.87,0,65.81-14.58,65.81-43.75
		c0-9.38-4.18-16.36-12.55-20.92c-14.97-7.61-36.96-13.37-66-17.31c-29.04-3.93-52.82-9.7-71.33-17.31
		c-18.51-7.61-33.61-16.74-45.27-27.39c-21.56-20.03-32.34-46.28-32.34-78.75c0-39.56,15.22-70.63,45.65-93.2
		c30.18-22.31,71.9-33.48,125.16-33.48c52.75,0,97.77,14.97,135.05,44.89c-1.78,6.6-3.68,12.93-5.71,19.02
		c-5.84,16.74-10.15,28.79-12.94,36.14l-8.75,22.44c-0.51,2.03-0.89,3.04-1.14,3.04c-0.51,0-2.54-2.66-6.09-7.99
		c-15.98-18.51-40.84-30.68-74.56-36.52c-10.4-2.03-21.05-3.04-31.95-3.04c-46.16,0-69.24,13.95-69.24,41.85
		c0,9.64,4.81,16.99,14.45,22.06c18,9.64,42.67,16.74,73.99,21.3c31.32,4.57,55.1,10.72,71.33,18.45
		c16.23,7.74,29.29,17.06,39.18,27.96c18.26,19.78,27.39,46.03,27.39,78.75c0,35.76-14.33,64.8-42.99,87.11
		C1388.05,1026.61,1346.33,1038.4,1292.82,1038.4z"/>
	<path class="st0" d="M1640.99,990.09c0,21.81,0.51,36.01,1.52,42.61h-96.63V635.16h95.1V990.09z"/>
	<path class="st0" d="M1856.78,926.94c-9.39,12.43-14.08,22.25-14.08,29.48c0,7.23,1.14,12.81,3.42,16.74
		c2.28,3.93,7.23,7.67,14.84,11.22c16.74,7.86,44.25,14.78,82.55,20.73c38.29,5.96,68.29,13.38,89.97,22.25
		c21.68,8.87,39.24,19.78,52.69,32.72c25.11,24.6,37.66,59.47,37.66,104.61c0,45.14-15.85,79.82-47.55,104.04
		c-31.71,24.22-78.75,36.33-141.13,36.33c-62.9,0-113.62-13.7-152.17-41.09c-38.55-27.39-58.33-63.78-59.35-109.18
		c-1.52-52.75,19.15-90.92,62.01-114.5c-11.67-9.64-19.47-20.98-23.39-34.05c-3.94-13.06-5.9-27.96-5.9-44.7
		c0-28.15,12.3-51.99,36.9-71.52c-28.66-27.13-42.99-60.87-42.99-101.19c0-45.14,16.23-82.93,48.69-113.36
		c34.24-31.96,78.62-47.93,133.14-47.93c28.66,0,55.54,5.33,80.65,15.98c32.97-13.94,57.19-26.18,72.66-36.71
		c15.47-10.52,25.36-18.19,29.67-23.02l2.28,0.38c2.28,6.09,4.95,14.71,7.99,25.87l6.85,27.39c6.09,22.58,9.76,38.04,11.03,46.41
		c-11.16,12.17-30.81,20.8-58.96,25.87c10.9,21.05,16.36,43.37,16.36,66.95s-4.06,44.95-12.17,64.1
		c-8.12,19.15-19.66,35.95-34.62,50.4c-33.23,31.19-75.58,46.79-127.06,46.79C1901.66,937.97,1878.33,934.3,1856.78,926.94z
		 M1940.09,1224.43c62.39,0,93.58-21.81,93.58-65.43c0-20.8-10.15-37.54-30.43-50.22c-22.83-14.45-62.01-25.74-117.55-33.86
		l-19.78-3.42c-16.74,8.87-29.04,20.29-36.9,34.24c-7.86,13.94-11.73,27.2-11.6,39.75c0.12,12.55,3.1,23.39,8.94,32.52
		c5.83,9.13,13.94,17.12,24.35,23.97C1873.76,1216.94,1903.57,1224.43,1940.09,1224.43z M1846.88,755.76
		c-3.56,9.13-5.33,18.39-5.33,27.77c0,9.38,1.96,18.39,5.9,27.01c3.93,8.62,9.7,16.36,17.31,23.2
		c16.99,15.22,39.18,22.82,66.57,22.82c20.79,0,38.8-6.97,54.02-20.92c15.98-15.22,23.97-33.54,23.97-54.97
		c0-21.43-7.23-38.74-21.68-51.93c-14.46-13.18-34.37-19.78-59.72-19.78C1886.07,708.96,1859.06,724.56,1846.88,755.76z"/>
	<path class="st0" d="M2312.98,990.09c0,21.81,0.51,36.01,1.52,42.61h-94.72V488.7h93.2v176.13
		c32.72-24.85,66.44-37.28,101.19-37.28c42.61,0,76.84,14.08,102.71,42.23c25.36,28.15,38.04,65.43,38.04,111.84v151.41
		c0,42.86,0.63,68.61,1.9,77.22c1.27,8.62,2.98,14.21,5.13,16.74c2.15,2.54,4,4.82,5.52,6.85l-0.76,1.52
		c-20.54-1.78-35.51-2.66-44.89-2.66h-27.01c-8.37,0-19.4,0.38-33.1,1.14V813.58c0-35-7.74-60.87-23.2-77.6
		c-11.67-12.68-27.52-19.02-47.55-19.02c-29.67,0-55.67,17.12-77.98,51.36V990.09z"/>
	<path class="st0" d="M2844.14,949c32.72,0,55.16-8.49,67.33-25.49h3.04l1.14,88.26c-12.43,12.43-35.51,20.67-69.24,24.73
		c-9.13,1.27-20.48,1.9-34.05,1.9c-13.57,0-28.28-2.54-44.13-7.61c-15.85-5.07-29.36-13.31-40.51-24.73
		c-23.08-23.59-34.62-60.49-34.62-110.7V722.66h-57.44c-0.26-7.35-0.38-14.84-0.38-22.44v-58.58c0-4.31,0.12-6.47,0.38-6.47h57.44
		V526.74h93.2v108.42h104.61v87.5h-104.61v155.21c0,39.82,11.03,62.52,33.1,68.09C2826.51,947.99,2834.75,949,2844.14,949z"/>
	<path class="st0" d="M1515.39,153.51L1305.6,37.64c-71.34-39.39-161.11-13.5-200.5,57.82l-32.65,59.11
		c-39.39,71.34-13.5,161.09,57.82,200.48l209.79,115.87c71.14,39.29,160.65,13.47,199.93-57.66l33.06-59.83
		C1612.32,282.29,1586.51,192.78,1515.39,153.51z M1256.61,217.71c-33.38,60.45-89.69,93.29-125.76,73.38
		c-36.06-19.92-38.23-85.07-4.85-145.52c33.38-60.45,89.69-93.31,125.76-73.39C1287.83,92.11,1290,157.26,1256.61,217.71z"/>
	<path class="st0" d="M1756.21,365.55L1756.21,365.55c11.76,83.05-31.6,164.16-107.19,200.52l-4.85,2.33l-123.59-68.26l1.17-1.06
		c58.49-52.97,97.53-124.02,110.87-201.8v0L1756.21,365.55z"/>
	<path class="st0" d="M1863.61,468.24L1863.61,468.24c0.51,50.59-28.16,103.79-70.88,131.52l-2.74,1.78l-61.01-33.7l0.69-0.74
		c34.77-36.83,60.45-83.51,72.93-132.56v0L1863.61,468.24z"/>
</g>
</svg>
