<?xml version="1.0" encoding="utf-8"?>
<!-- Generator: Adobe Illustrator 25.4.1, SVG Export Plug-In . SVG Version: 6.00 Build 0)  -->
<svg version="1.1" id="Layer_1" xmlns="http://www.w3.org/2000/svg" xmlns:xlink="http://www.w3.org/1999/xlink" x="0px" y="0px"
	 viewBox="0 0 2442.91 1120.15" style="enable-background:new 0 0 2442.91 1120.15;" xml:space="preserve">
<style type="text/css">
	.st0{fill:#FFFFFF;}
	.st1{fill:#343434;}
</style>
<g>
	<path class="st1" d="M352.87,821.15c-22.82,22.82-58.57,34.23-107.26,34.23c-47.26,0-85.87-14.36-115.82-43.09
		c-30.36-29.13-45.53-67.84-45.53-116.12c0-49.09,14.97-89.43,44.92-121.01c31.78-33.2,74.26-49.81,127.43-49.81
		c37.69,0,69.26,8.25,94.73,24.75l-12.22,78.23l-2.14-0.31c-9.78-11.81-20.07-19.56-30.87-23.22c-17.52-6.11-35.04-9.17-52.56-9.17
		c-17.52,0-31.28,2.24-41.26,6.72c-9.98,4.48-18.54,10.7-25.67,18.64c-14.26,16.3-21.39,37.89-21.39,64.79
		c0,47.67,16.5,78.84,49.5,93.51c11.41,4.89,23.48,7.33,36.21,7.33c12.73,0,23.84-1.12,33.31-3.36c9.47-2.24,18.08-5.3,25.82-9.17
		c16.5-8.15,27.7-17.62,33.61-28.42l2.14,0.92L352.87,821.15z"/>
	<path class="st1" d="M611.16,822.98c-26.08,21.6-54.5,32.39-85.26,32.39c-33,0-58.88-11.1-77.62-33.31
		c-17.93-21.59-26.89-51.23-26.89-88.93V611.82c0-40.74-0.87-64.12-2.6-70.13c-1.73-6.01-3.01-9.83-3.82-11.46
		c9.37,0.82,19.15,1.22,29.34,1.22h25.36c6.72,0,15.59-0.31,26.59-0.92v176.93c0,41.97,11.41,66.31,34.23,73.04
		c6.92,2.04,14.46,3.06,22.61,3.06c24.04,0,43.39-8.76,58.06-26.28V531.45h75.79v280.22c0,17.93,0.81,30.97,2.44,39.12h-78.23
		V822.98z"/>
	<path class="st1" d="M858.46,816.56c0,17.52,0.41,28.93,1.22,34.23h-77.62V395.46h76.4V816.56z"/>
	<path class="st1" d="M1055.02,855.37c-57.45,0-100.74-10.49-129.87-31.47c0.41-6.11,1.02-13.04,1.83-20.78l2.75-22
		c1.63-14.46,2.64-23.48,3.06-27.04c0.41-3.56,0.71-5.5,0.92-5.81c0.2-0.31,1.83,1.33,4.89,4.89c3.06,3.57,8.86,7.9,17.42,12.99
		c8.56,5.1,18.44,9.58,29.64,13.45c24.24,8.36,49.51,12.53,75.79,12.53c35.24,0,52.87-11.71,52.87-35.14
		c0-7.54-3.36-13.14-10.08-16.81c-12.02-6.11-29.69-10.74-53.02-13.9c-23.33-3.16-42.43-7.79-57.3-13.9
		c-14.87-6.11-27-13.44-36.36-22c-17.32-16.09-25.98-37.18-25.98-63.26c0-31.78,12.22-56.73,36.67-74.87
		c24.24-17.92,57.76-26.89,100.54-26.89c42.37,0,78.54,12.02,108.48,36.06c-1.43,5.3-2.96,10.39-4.58,15.28
		c-4.69,13.45-8.15,23.12-10.39,29.03l-7.03,18.03c-0.41,1.63-0.72,2.44-0.92,2.44c-0.41,0-2.04-2.14-4.89-6.42
		c-12.83-14.87-32.8-24.65-59.9-29.34c-8.36-1.63-16.91-2.44-25.67-2.44c-37.08,0-55.62,11.21-55.62,33.61
		c0,7.75,3.87,13.65,11.61,17.72c14.46,7.75,34.27,13.45,59.44,17.11c25.16,3.67,44.26,8.61,57.3,14.82
		c13.04,6.22,23.53,13.7,31.47,22.46c14.67,15.89,22,36.98,22,63.26c0,28.73-11.51,52.05-34.53,69.98
		C1131.52,845.9,1098.01,855.37,1055.02,855.37z"/>
	<path class="st1" d="M1334.71,816.56c0,17.52,0.41,28.93,1.22,34.23h-77.62V531.45h76.4V816.56z"/>
	<path class="st1" d="M1508.05,765.84c-7.54,9.98-11.31,17.88-11.31,23.68c0,5.81,0.92,10.29,2.75,13.45
		c1.83,3.16,5.81,6.16,11.92,9.01c13.45,6.32,35.55,11.87,66.31,16.66c30.76,4.79,54.85,10.75,72.27,17.88
		c17.42,7.13,31.52,15.89,42.32,26.28c20.17,19.76,30.25,47.77,30.25,84.04c0,36.26-12.73,64.12-38.2,83.58
		c-25.47,19.45-63.26,29.18-113.37,29.18c-50.53,0-91.27-11-122.24-33c-30.97-22-46.86-51.24-47.67-87.7
		c-1.22-42.38,15.38-73.04,49.81-91.98c-9.37-7.74-15.64-16.86-18.79-27.35c-3.16-10.49-4.74-22.46-4.74-35.91
		c0-22.61,9.88-41.76,29.64-57.45c-23.02-21.8-34.53-48.89-34.53-81.29c0-36.26,13.04-66.62,39.12-91.06
		c27.5-25.67,63.15-38.5,106.96-38.5c23.02,0,44.62,4.28,64.79,12.83c26.48-11.2,45.94-21.03,58.37-29.49
		c12.42-8.45,20.37-14.62,23.84-18.49l1.83,0.31c1.83,4.89,3.97,11.82,6.42,20.78l5.5,22c4.89,18.13,7.84,30.56,8.86,37.28
		c-8.97,9.78-24.75,16.71-47.37,20.78c8.76,16.91,13.14,34.84,13.14,53.78s-3.26,36.11-9.78,51.49
		c-6.52,15.38-15.79,28.88-27.81,40.49c-26.69,25.06-60.71,37.59-102.07,37.59C1544.11,774.7,1525.37,771.75,1508.05,765.84z
		 M1574.98,1004.81c50.12,0,75.17-17.52,75.17-52.56c0-16.71-8.15-30.15-24.45-40.34c-18.34-11.61-49.81-20.68-94.43-27.2
		l-15.89-2.75c-13.45,7.13-23.33,16.3-29.64,27.5c-6.32,11.2-9.43,21.85-9.32,31.93c0.1,10.08,2.49,18.79,7.18,26.13
		c4.68,7.33,11.2,13.75,19.56,19.25C1521.7,998.79,1545.64,1004.81,1574.98,1004.81z M1500.11,628.32
		c-2.86,7.33-4.28,14.77-4.28,22.31c0,7.54,1.58,14.77,4.74,21.7c3.16,6.93,7.79,13.14,13.9,18.64
		c13.65,12.22,31.47,18.34,53.48,18.34c16.7,0,31.17-5.6,43.39-16.81c12.84-12.22,19.25-26.94,19.25-44.16
		c0-17.21-5.81-31.12-17.42-41.71c-11.61-10.59-27.61-15.89-47.98-15.89C1531.58,590.73,1509.89,603.26,1500.11,628.32z"/>
	<path class="st1" d="M1874.53,816.56c0,17.52,0.41,28.93,1.22,34.23h-76.09V413.8h74.87v141.49
		c26.28-19.96,53.37-29.95,81.29-29.95c34.23,0,61.73,11.31,82.51,33.92c20.37,22.61,30.56,52.56,30.56,89.84v121.62
		c0,34.43,0.51,55.11,1.53,62.03c1.02,6.93,2.39,11.41,4.12,13.45c1.73,2.04,3.21,3.87,4.43,5.5l-0.61,1.22
		c-16.5-1.43-28.52-2.14-36.06-2.14h-21.7c-6.72,0-15.59,0.31-26.59,0.92V674.77c0-28.11-6.22-48.89-18.64-62.34
		c-9.37-10.18-22.11-15.28-38.2-15.28c-23.84,0-44.72,13.75-62.65,41.26V816.56z"/>
	<path class="st1" d="M2301.2,783.56c26.28,0,44.31-6.82,54.09-20.47h2.44l0.92,70.9c-9.98,9.98-28.53,16.61-55.62,19.86
		c-7.33,1.02-16.45,1.53-27.35,1.53c-10.9,0-22.72-2.04-35.45-6.11c-12.73-4.07-23.58-10.7-32.55-19.86
		c-18.54-18.95-27.81-48.59-27.81-88.93V601.73h-46.14c-0.2-5.91-0.3-11.92-0.3-18.03v-47.06c0-3.46,0.1-5.2,0.3-5.2h46.14v-87.09
		h74.87v87.09h84.04v70.29h-84.04v124.68c0,31.99,8.86,50.22,26.59,54.7C2287.04,782.75,2293.66,783.56,2301.2,783.56z"/>
	<path class="st1" d="M1233.82,144.53l-168.52-93.08c-57.31-31.64-129.42-10.84-161.06,46.45l-26.23,47.48
		c-31.64,57.31-10.84,129.4,46.45,161.05l168.52,93.08c57.15,31.56,129.05,10.82,160.6-46.32l26.55-48.06
		C1311.68,247.99,1290.95,176.09,1233.82,144.53z M1025.94,196.11c-26.82,48.56-72.05,74.94-101.03,58.95
		c-28.97-16-30.71-68.33-3.89-116.89c26.82-48.56,72.05-74.96,101.03-58.96C1051.01,95.21,1052.76,147.55,1025.94,196.11z"/>
	<path class="st1" d="M1427.27,314.87L1427.27,314.87c9.45,66.72-25.38,131.87-86.1,161.08l-3.9,1.87l-99.28-54.83l0.94-0.85
		c46.99-42.55,78.35-99.63,89.06-162.1v0L1427.27,314.87z"/>
	<path class="st1" d="M1513.54,397.36L1513.54,397.36c0.41,40.64-22.62,83.37-56.94,105.65l-2.2,1.43l-49.01-27.07l0.56-0.59
		c27.93-29.59,48.56-67.08,58.58-106.49v0L1513.54,397.36z"/>
</g>
</svg>
